# xmcd
#
# Track frame offsets:
#	150
#	14627
#	28937
#	43053
#	56511
#	73566
#	88508
#	102371
#	115886
#	134203
#	146844
#	164679
#	182934
#	198015
#	214177
#
# Disc length: 3033 seconds
#
# Revision: 1
# Processed by: cddbd v1.5.2PL0 Copyright (c) Steve Scherf et al.
# Submitted via: audiograbber 1.83.01
#
DISCID=ea0bd70f
DTITLE=Vários - 100% Universitario Sertanejo
DYEAR=1900
DGENRE=Sertanejo
TTITLE0=Briga de Buteco
TTITLE1=Sufoco
TTITLE2=Lua
TTITLE3=Menina Forrozeira
TTITLE4=Fora de Controle
TTITLE5=Faculdade da Pinga
TTITLE6=Pau Véio
TTITLE7=Será que você me dá
TTITLE8=Eu só quero beber
TTITLE9=Essa saudade
TTITLE10=É binita é bandida
TTITLE11=Culpados
TTITLE12=Filha da fruta
TTITLE13=Eu amo você
TTITLE14=Tô de boa
EXTD=
EXTT0=
EXTT1=
EXTT2=
EXTT3=
EXTT4=
EXTT5=
EXTT6=
EXTT7=
EXTT8=
EXTT9=
EXTT10=
EXTT11=
EXTT12=
EXTT13=
EXTT14=
PLAYORDER=
